# xmcd CD database file
#
# Track frame offsets:
#	150
#	13032
#	35281
#	55873
#	76422
#	102671
#	122448
#	143308
#	162816
#	182359
#	196915
#	214815
#	236522
#	258519
#	286585
#
# Disc length: 4088 seconds
#
# Revision: 0
# Processed by: cddbd v1.5.1PL0 Copyright (c) Steve Scherf et al.
# Submitted via: CDex 1.60beta1
#
DISCID=bc0ff60f
DTITLE=Bruce Hamada and Jim Howard - How Deep Is The Ocean
DYEAR=2001
DGENRE=Jazz
TTITLE0=They Can't Take That Away From Me
TTITLE1=Time After Time
TTITLE2=Surrey With The Fringe On Top
TTITLE3=I've Got You Under My Skin
TTITLE4=Take The "A" Train
TTITLE5=How About Me?
TTITLE6=I Thought About You
TTITLE7=Some Other Time
TTITLE8=How Deep Is The Ocean?
TTITLE9=I've Got The World On A String
TTITLE10=September Song
TTITLE11=That Old Devil Moon
TTITLE12=Too Late Now
TTITLE13=I Can't Get Started
TTITLE14=Oh How I Hate To Get Up In The Morning
EXTD=YEAR: 2001
EXTT0=
EXTT1=
EXTT2=
EXTT3=
EXTT4=
EXTT5=
EXTT6=
EXTT7=
EXTT8=
EXTT9=
EXTT10=
EXTT11=
EXTT12=
EXTT13=
EXTT14=
PLAYORDER=
